<?xml version="1.0" encoding="UTF-8"?>
<svg id="_레이어_2" data-name="레이어 2" xmlns="http://www.w3.org/2000/svg" viewBox="0 0 146.02 55.85">
  <defs>
    <style>
      .cls-1 {
        stroke-width: .75px;
      }

      .cls-1, .cls-2 {
        stroke: #000;
        stroke-miterlimit: 10;
      }

      .cls-2 {
        fill: none;
        stroke-width: 2px;
      }
    </style>
  </defs>
  <g id="_레이어_1-2" data-name="레이어 1">
    <g>
      <g>
        <g>
          <path class="cls-1" d="M18.45,9.83c.48-.09.95.19.86.57l-1.43,5.84c.05.29,1.62.81,3.99,1.85,1.9.9,3.99,1.9,5.13,3.13.33.43.62,1.09.62,1.57.05.62.24.86,0,1.43-.48-.05-.71-.67-1.14-1.57-1.28-1.09-3.14-2.23-4.56-2.85-1.9-.76-3.28-1-4.37-1-.38,0-.67.05-.81.14-.62.86-.48,2.09-.81,3.33-.48,1.76-.81,2.61-1.24,3.33-.62.67-.62,1.28-1.71,1.28l4.51-15.82c.19-.57.52-1.09.95-1.24ZM32.99,28.41c-.29-.62-.57-1.52-.67-2.19-.24-2.9-.1-6.27.57-11.31l-.05-3.09c0-1.23.19-2.19.71-3.04.38-.24.57-.33.76-.33.24,0,.33.1.38.33.29.52,0,1.38,0,1.66l-.1,5.7,5.7.52c.05-1.38.05-2.42.14-2.95.24-1.47.62-3.18.71-4.18.14-1.42.14-1.9.29-2.28,0-.33,1.62-.9,1.62-.24-.24.76-.29,1.33-.29,2.8-.05.95-.1,1.85-.29,2.8-.19,1.09-.43,2.61-.52,4.23.48.19.81.76.81,1.19,0,.62-.48.52-.95.52l-.1,3.61.1,2.52c0,1.05-.33,4.23-.48,4.66-.05.14-.19.24-.43.24-.43,0-1-.33-1.38-.71l.57-6.79c.1-1.09.1-2.38.14-3.71-.67-.19-1.24-.38-1.76-.43-1.19,0-2.47.14-4.18,0-.29,1.38-.29,3.75-.29,5.46,0,.52.38,2.33.43,3.66.05,1.38-.19,1.85-.95,1.85-.19,0-.38-.14-.52-.52Z"/>
          <path class="cls-1" d="M63.45,20.71c-1.38-.05-2.04.14-2.71.19-2.71.24-5.46-.05-7.6-.47-1.05-.19-1.47-2-1.47-3.18,0-2.9.29-4.13.29-5.56,0-.62.71-1,1.19-1.04l3.47-.24c1.71,0,3.09-.67,4.7-1.05.71-2.61-.14-5.08-.38-7.65-8.12,0-10.93,2.28-12.59,2.28-.67,0-1.33-.71-1.33-1.33,0-.33.43-.81,1.52-1l4.47-.95c2.04-.38,5.8-.33,7.79-.33.76,0,1.47.67,1.66,1.43.52,1.66.62,4.18.71,5.04.05.52.33,1.28.43,2.04.05.62,0,1.19-.52,1.66-1,1.05-7.94,1.28-9.74,1.47,0,1.8,0,5.08.43,7.08,1.71-.24,3.18.33,4.7.48,2.42.09,5.13-.71,6.13-.71,1.24,0,2.09,2.09,1.24,2.09-.67,0-1.33-.19-2.38-.24ZM57.94,37.54c-.19-1.19-1.33-1.43-2.57-1.43-1.95,0-3.52.19-4.56.19-1.33,0-2.04-.47-2.04-1.47,0-.57.29-.76.81-.76.67,0,1.43.76,2.61.76,1.62,0,3.47.1,5.7-.05l.14-8.7c0-.86,1.76-1.71,1.76,0,0,1.09-.43,2.23-.43,4.42,0,1.62.05,3.09.29,4.61,2.14.1,4.37,0,6.51-.67,1.43,0,2.57,1.76,1.14,1.85l-7.98.43-.33,1c-.14.43-.95.29-1.04-.19Z"/>
          <path class="cls-1" d="M92.68,15.01c-1.62-1.04-3.61-2-5.37-2.95-.95,1.66-1.43,3.8-2.14,6.04-.33,1.14-1.95,1.38-1.76.62,1.24-4.61,3.71-10.98,3.75-14.49-2.57-.19-4.85-.14-7.56.24-1.14,0-1.9-.67-1.95-1.19-.05-.29.19-.52.67-.43,4.18-.57,7.41-.57,9.74-.19.57,0,.85.29.95,1.14.19,2.14-1.38,4.42-1.66,7.13,0,0,.48-.52.95-.52.43.14.81.33,1.24.62,1.38.81,3.04,2.19,4.37,2.95.9.67,5.23,3.04,5.99,3.66.67.24,1.43,1.57.9,1.57-3.18-.81-5.23-2.23-8.12-4.18ZM92.44,37.91c0-2.47.33-5.32,1.14-10.17-3.61,0-7.37-.62-10.45-.81-.81,0-1.14-.14-1.14-.62.09-.48.57-.9,1.14-.9,1.43,0,3.94.33,9.17.81,6.08,0,8.46.14,9.12.47.52.52.62.76.62,1.47-2,.43-3.99.19-7.13-.43-.62.62-.62,9.55-.62,10.74,0,3.09-1.24,1.85-1.85-.57Z"/>
          <path class="cls-1" d="M105.13,27.84c1.09-1.33,4.28-4.61,4.51-5.42-.33-.24-.48-.48-.43-.81.14-.62,1.24-.19,1.85-.76.85-.81,2.8-3.37,2.8-3.37-3.85,0-7.41.24-10.74,0-.14,0-.48.14-.76.14-.33,0-.57-.24-.76-.76,0-.33.52-.62,1.24-.71,1.09-.19,4.56-.43,5.46-.43,1.43,0,2.71-.14,3.9-.38,1.05,0,2.47,0,3.09.05,1.24.09,1.57,1.24.67,2.33l-3.52,4.28c3.33,1.62,6.03,3.09,7.36,4.18.62.62.9,1.19.86,1.62-.05.19-.14.33-.29.48l-9.03-5.13c-1.38.71-3.18,4.04-4.37,5.13-.71.57-1.85,1.04-2.47.62-.09-.14.1-.47.62-1.04ZM114.49,10.69c-1.81-.48-4.94-2.23-5.75-2.47-.71-.24-2-1.33-2.76-1.85-.24-.19-.33-.43-.29-.67.1-.52.95-.86,1.38-.71l2.23,1.57c1.57.9,4.32,1.85,5.75,2.52.67.76.85,1.43.43,1.66-.14.14-.48.09-1-.05ZM124.47,30.22c-.24-.81-.57-1.95-.67-2.76-.29-4.09-.14-6.51.57-11.55l-.05-3.47c0-1.85.24-3.18.71-4.42.38-.33.62-.43.76-.43.24,0,.33.14.38.43.24.81.05,2.04,0,2.38l-.1,6.7,9.08.62c.62,0,1.57.76,1.57,1.33,0,.67-.48.48-1,.48-1.24,0-3.04-.48-4.8-.62-1.19,0-3.52.14-5.13.05-.28,1.33-.28,3.14-.28,4.85,0,.67.38,2.99.43,4.75.05,1.76-.19,2.42-.95,2.42-.19,0-.38-.24-.52-.76Z"/>
        </g>
        <path class="cls-2" d="M0,52.85c36.51,0,36.51,2,73.01,2s36.51-2,73.01-2"/>
      </g>
      <g>
        <g>
          <path class="cls-1" d="M18.45,9.83c.48-.09.95.19.86.57l-1.43,5.84c.05.29,1.62.81,3.99,1.85,1.9.9,3.99,1.9,5.13,3.13.33.43.62,1.09.62,1.57.05.62.24.86,0,1.43-.48-.05-.71-.67-1.14-1.57-1.28-1.09-3.14-2.23-4.56-2.85-1.9-.76-3.28-1-4.37-1-.38,0-.67.05-.81.14-.62.86-.48,2.09-.81,3.33-.48,1.76-.81,2.61-1.24,3.33-.62.67-.62,1.28-1.71,1.28l4.51-15.82c.19-.57.52-1.09.95-1.24ZM32.99,28.41c-.29-.62-.57-1.52-.67-2.19-.24-2.9-.1-6.27.57-11.31l-.05-3.09c0-1.23.19-2.19.71-3.04.38-.24.57-.33.76-.33.24,0,.33.1.38.33.29.52,0,1.38,0,1.66l-.1,5.7,5.7.52c.05-1.38.05-2.42.14-2.95.24-1.47.62-3.18.71-4.18.14-1.42.14-1.9.29-2.28,0-.33,1.62-.9,1.62-.24-.24.76-.29,1.33-.29,2.8-.05.95-.1,1.85-.29,2.8-.19,1.09-.43,2.61-.52,4.23.48.19.81.76.81,1.19,0,.62-.48.52-.95.52l-.1,3.61.1,2.52c0,1.05-.33,4.23-.48,4.66-.05.14-.19.24-.43.24-.43,0-1-.33-1.38-.71l.57-6.79c.1-1.09.1-2.38.14-3.71-.67-.19-1.24-.38-1.76-.43-1.19,0-2.47.14-4.18,0-.29,1.38-.29,3.75-.29,5.46,0,.52.38,2.33.43,3.66.05,1.38-.19,1.85-.95,1.85-.19,0-.38-.14-.52-.52Z"/>
          <path class="cls-1" d="M63.45,20.71c-1.38-.05-2.04.14-2.71.19-2.71.24-5.46-.05-7.6-.47-1.05-.19-1.47-2-1.47-3.18,0-2.9.29-4.13.29-5.56,0-.62.71-1,1.19-1.04l3.47-.24c1.71,0,3.09-.67,4.7-1.05.71-2.61-.14-5.08-.38-7.65-8.12,0-10.93,2.28-12.59,2.28-.67,0-1.33-.71-1.33-1.33,0-.33.43-.81,1.52-1l4.47-.95c2.04-.38,5.8-.33,7.79-.33.76,0,1.47.67,1.66,1.43.52,1.66.62,4.18.71,5.04.05.52.33,1.28.43,2.04.05.62,0,1.19-.52,1.66-1,1.05-7.94,1.28-9.74,1.47,0,1.8,0,5.08.43,7.08,1.71-.24,3.18.33,4.7.48,2.42.09,5.13-.71,6.13-.71,1.24,0,2.09,2.09,1.24,2.09-.67,0-1.33-.19-2.38-.24ZM57.94,37.54c-.19-1.19-1.33-1.43-2.57-1.43-1.95,0-3.52.19-4.56.19-1.33,0-2.04-.47-2.04-1.47,0-.57.29-.76.81-.76.67,0,1.43.76,2.61.76,1.62,0,3.47.1,5.7-.05l.14-8.7c0-.86,1.76-1.71,1.76,0,0,1.09-.43,2.23-.43,4.42,0,1.62.05,3.09.29,4.61,2.14.1,4.37,0,6.51-.67,1.43,0,2.57,1.76,1.14,1.85l-7.98.43-.33,1c-.14.43-.95.29-1.04-.19Z"/>
          <path class="cls-1" d="M92.68,15.01c-1.62-1.04-3.61-2-5.37-2.95-.95,1.66-1.43,3.8-2.14,6.04-.33,1.14-1.95,1.38-1.76.62,1.24-4.61,3.71-10.98,3.75-14.49-2.57-.19-4.85-.14-7.56.24-1.14,0-1.9-.67-1.95-1.19-.05-.29.19-.52.67-.43,4.18-.57,7.41-.57,9.74-.19.57,0,.85.29.95,1.14.19,2.14-1.38,4.42-1.66,7.13,0,0,.48-.52.95-.52.43.14.81.33,1.24.62,1.38.81,3.04,2.19,4.37,2.95.9.67,5.23,3.04,5.99,3.66.67.24,1.43,1.57.9,1.57-3.18-.81-5.23-2.23-8.12-4.18ZM92.44,37.91c0-2.47.33-5.32,1.14-10.17-3.61,0-7.37-.62-10.45-.81-.81,0-1.14-.14-1.14-.62.09-.48.57-.9,1.14-.9,1.43,0,3.94.33,9.17.81,6.08,0,8.46.14,9.12.47.52.52.62.76.62,1.47-2,.43-3.99.19-7.13-.43-.62.62-.62,9.55-.62,10.74,0,3.09-1.24,1.85-1.85-.57Z"/>
          <path class="cls-1" d="M105.13,27.84c1.09-1.33,4.28-4.61,4.51-5.42-.33-.24-.48-.48-.43-.81.14-.62,1.24-.19,1.85-.76.85-.81,2.8-3.37,2.8-3.37-3.85,0-7.41.24-10.74,0-.14,0-.48.14-.76.14-.33,0-.57-.24-.76-.76,0-.33.52-.62,1.24-.71,1.09-.19,4.56-.43,5.46-.43,1.43,0,2.71-.14,3.9-.38,1.05,0,2.47,0,3.09.05,1.24.09,1.57,1.24.67,2.33l-3.52,4.28c3.33,1.62,6.03,3.09,7.36,4.18.62.62.9,1.19.86,1.62-.05.19-.14.33-.29.48l-9.03-5.13c-1.38.71-3.18,4.04-4.37,5.13-.71.57-1.85,1.04-2.47.62-.09-.14.1-.47.62-1.04ZM114.49,10.69c-1.81-.48-4.94-2.23-5.75-2.47-.71-.24-2-1.33-2.76-1.85-.24-.19-.33-.43-.29-.67.1-.52.95-.86,1.38-.71l2.23,1.57c1.57.9,4.32,1.85,5.75,2.52.67.76.85,1.43.43,1.66-.14.14-.48.09-1-.05ZM124.47,30.22c-.24-.81-.57-1.95-.67-2.76-.29-4.09-.14-6.51.57-11.55l-.05-3.47c0-1.85.24-3.18.71-4.42.38-.33.62-.43.76-.43.24,0,.33.14.38.43.24.81.05,2.04,0,2.38l-.1,6.7,9.08.62c.62,0,1.57.76,1.57,1.33,0,.67-.48.48-1,.48-1.24,0-3.04-.48-4.8-.62-1.19,0-3.52.14-5.13.05-.28,1.33-.28,3.14-.28,4.85,0,.67.38,2.99.43,4.75.05,1.76-.19,2.42-.95,2.42-.19,0-.38-.24-.52-.76Z"/>
        </g>
        <path class="cls-2" d="M0,52.85c36.51,0,36.51,2,73.01,2s36.51-2,73.01-2"/>
      </g>
    </g>
  </g>
</svg>