<?xml version="1.0" encoding="UTF-8"?>
<svg id="_레이어_2" data-name="레이어 2" xmlns="http://www.w3.org/2000/svg" viewBox="0 0 224.93 146.36">
  <defs>
    <style>
      .cls-1 {
        fill: #e6c7cc;
      }

      .cls-1, .cls-2, .cls-3, .cls-4, .cls-5, .cls-6, .cls-7, .cls-8 {
        stroke: #000;
        stroke-miterlimit: 10;
      }

      .cls-1, .cls-2, .cls-4, .cls-5, .cls-6, .cls-7, .cls-8 {
        stroke-width: 2.48px;
      }

      .cls-2 {
        fill: #ff734c;
      }

      .cls-3 {
        stroke-width: 2.13px;
      }

      .cls-4 {
        fill: #dfffcc;
      }

      .cls-5 {
        fill: #c2c2c2;
      }

      .cls-6 {
        fill: #ffda26;
      }

      .cls-7, .cls-9 {
        fill: #fff;
      }

      .cls-10 {
        fill: #ff1d25;
      }
    </style>
  </defs>
  <g id="_레이어_1-2" data-name="레이어 1">
    <g>
      <g>
        <path d="M77.47,7.81c-.74-1.61-1.65-3.1-3.4-3.74-1.85-.67-3.72-1.27-5.71-1.27l-6.85.02c-2.65,0-5.18-.06-7.8-.48-3.49-.56-6.82-.7-10.36-.47-3.26.21-6.41.33-9.65.11l-8.34-.57H9.25c-1.95-.01-3.8,1.13-5.2,2.34-.99.86-1.29,2.1-1.68,3.28-.56,1.71-.83,3.35-.78,5.17l.15,5.26c.08,2.94.07,5.75.33,8.67.27,3.11.26,6.09-.04,9.19-.22,2.27-.55,4.44-.55,6.75l.02,15.43.04,8.66c0,1.54.26,2.9.88,4.28.46,1.01.91,2.1,1.81,2.76,1.69,1.24,3.68,1.28,5.7,1.51,3.6.4,7.04.82,10.68.67,2.34-.09,4.6-.06,6.9.09,5.04,0,10.07.18,15.1.47h.02s0,0,0,0c.47.03.95.06,1.42.09h0s12.87.67,12.87.67c4.99.26,9.78-.35,14.63-1.26,1.41-.27,2.25-.78,3.2-1.8,1.87-2.01,3.1-4.28,3.1-7.14v-7.79s.62-7.13.62-7.13l.06-11.87.33-6.8.03-11.03.07-8.46c.02-2.05-.66-3.78-1.5-5.61ZM77.54,20.69l-.03,11.53-.32,6.79-.07,12.21-.65,7.13.02,5.95c0,1.68,0,3.35-.52,4.94-.44,1.37-1.41,2.38-2.32,3.45-.38.45-.81.97-1.53,1.13-5.63,1.29-11.21,1.75-16.91,1.42l-10.82-.62-5.26-.04c-3.37-.03-6.63-.37-10.01-.43l-8.32-.16c-2.99-.06-5.86-.15-8.83-.48l-4.04-.45c-1.1-.12-2.31-.5-3.12-1.26-.49-.46-.71-1.29-1-1.88-.56-1.13-.92-2.3-.85-3.58.17-3.16-.06-6.16-.07-9.33v-14.58c-.01-2.28.31-4.44.53-6.7.32-3.23.37-6.34.07-9.6-.27-2.81-.24-5.5-.32-8.32l-.15-5.43c-.05-1.85.29-3.51.79-5.24.44-1.52,1.17-2.64,2.63-3.36.98-.48,2-1.01,3.17-1.01l15.36.03,5.99.41c3.49.24,6.85.31,10.35.17,2.75-.11,5.41-.43,8.15-.11l7.4.88c4.36.52,9.11-.66,14.55.55l2.23.78c1.39.49,1.9,1.64,2.46,2.86.68,1.49,1.27,2.87,1.42,4.55.24,2.63.03,5.15.02,7.8Z"/>
        <path d="M32.59,63.2c-.15.44-.56.91-1.03.99-2.46.42-5.89.61-7.9-.56-.58-2.41-.78-4.71-.6-7.15l.42-5.59.24-9.41c.1-3.86-.12-7.59-.39-11.46-.23-3.25-.26-6.32.11-9.53l.46-4.03c.05-.43.71-.82,1.12-.9,2.53-.48,4.9-.85,7.48-.95,5.44-.21,10.74.78,15.6,3.16,1.59.78,3.02,1.71,3.96,3.2l2.55,4.06c2.36,4.33,2.72,10.02.7,14.53-1.02,2.28-2.68,3.9-4.94,4.95-5.06,2.34-11.8,3.61-17.36,3.39l.05,6.7c.02,2.92-.11,5.68-.46,8.58ZM31.62,47.04c0-.26.65-.63.85-.56,2.62.18,5.02.03,7.57-.4,3.97-.71,10.73-2.18,12.91-5.28,3.05-4.34,2.94-10.32.5-14.92l-2.55-4.08c-.87-1.39-2.25-2.19-3.75-2.9-6.9-3.25-14.46-3.52-21.93-1.95l-.36,3.57c-.22,2.21-.44,4.38-.29,6.61l.52,8.15c.24,3.72.03,7.3-.19,11.02-.12,2.13.14,4.17-.1,6.27-.4,3.42-.65,6.76.11,10.17,2.07.57,4.15.44,6.32.08.37-2.84.45-5.62.47-8.52l.02-4.31-.1-2.95Z"/>
        <path class="cls-10" d="M31.62,47.04l.1,2.95-.02,4.31c-.02,2.9-.1,5.68-.47,8.52-2.17.37-4.25.49-6.32-.08-.77-3.4-.51-6.75-.11-10.17.24-2.1-.02-4.14.1-6.27.21-3.72.42-7.3.19-11.02l-.52-8.15c-.14-2.23.07-4.4.29-6.61l.36-3.57c7.48-1.58,15.03-1.31,21.93,1.95,1.5.71,2.88,1.51,3.75,2.9l2.55,4.08c2.44,4.59,2.55,10.58-.5,14.92-2.18,3.1-8.94,4.57-12.91,5.28-2.55.43-4.95.58-7.57.4-.21-.08-.86.3-.85.56ZM43.67,38.78c3.08-1.03,4.74-3.62,4.79-6.72.04-2.5-.95-4.73-3.11-6.09-3.77-2.37-8.13-2.47-12.51-2.1-.73.06-1.05.52-1.09,1.23l-.42,8.64.3,5.44c.03.53.54.69,1.03.73,3.72.29,7.41.05,11-1.15Z"/>
        <path d="M43.67,38.78c-3.58,1.2-7.28,1.44-11,1.15-.49-.04-1-.21-1.03-.73l-.3-5.44.42-8.64c.03-.71.35-1.17,1.09-1.23,4.38-.37,8.74-.28,12.51,2.1,2.16,1.36,3.15,3.59,3.11,6.09-.05,3.1-1.71,5.69-4.79,6.72ZM44.44,36.87c3.11-1.96,3.56-6.34,1.11-9.01-3.3-2.72-8.38-3.16-12.43-2.53l-.4,8.27c-.08,1.65.2,3.25.23,4.91,3.3.41,9.01-.08,11.49-1.64Z"/>
        <path class="cls-9" d="M44.44,36.87c-2.48,1.56-8.18,2.04-11.49,1.64-.03-1.67-.31-3.26-.23-4.91l.4-8.27c4.06-.63,9.14-.19,12.43,2.53,2.45,2.67,2,7.06-1.11,9.01Z"/>
      </g>
      <polygon class="cls-9" points="28.57 76.4 29.48 141.22 43.32 139.66 44.33 76.88 28.57 76.4"/>
      <g>
        <path class="cls-3" d="M44.77,135.56l.06,4.79c0,.19-.12.61-.26.7s-.52.11-.77.12l-4.5.14c-3.33.1-6.51.22-9.83-.1-.3-.03-.86-.1-.99-.29s-.12-.65-.12-.98l.04-9.27-.07-7.66c-.03-3.3-.02-6.47.2-9.78l-.04-7.57.02-8.59.08-15.71-.02-4.98c-2.69-.21-5.33-.28-8.06-.17-3.7.15-7.2-.27-10.86-.68-2.05-.23-4.07-.27-5.79-1.53-.91-.66-1.37-1.78-1.84-2.8-.64-1.4-.89-2.78-.9-4.35l-.04-8.8-.02-15.68c0-2.35.33-4.55.56-6.86.31-3.15.32-6.18.04-9.34-.26-2.97-.25-5.82-.33-8.81l-.15-5.34c-.05-1.85.22-3.52.79-5.26.4-1.19.7-2.46,1.71-3.33,1.42-1.23,3.3-2.4,5.28-2.39h16.38s8.47.59,8.47.59c3.3.22,6.49.1,9.81-.11,3.6-.23,6.98-.09,10.53.48,2.66.43,5.23.5,7.92.49l6.96-.02c2.02,0,3.92.6,5.8,1.29,1.77.65,2.7,2.16,3.45,3.8.86,1.86,1.55,3.62,1.53,5.7l-.08,8.6-.03,11.2-.33,6.91-.07,12.06-.63,7.24v7.92c0,2.91-1.26,5.21-3.15,7.26-.96,1.04-1.81,1.56-3.25,1.83-4.93.93-9.8,1.54-14.86,1.28l-13.08-.69-.13,6.04v14.48c-.09,3.76.07,7.31.49,11.04.46,4.03.5,7.86.44,11.9-.05,3.44.25,6.75,0,10.17l-.37,5.06ZM72.83,74.67c.73-.17,1.17-.7,1.56-1.15.92-1.09,1.9-2.12,2.36-3.51.52-1.61.53-3.31.53-5.02l-.02-6.04.66-7.24.07-12.41.32-6.9.03-11.72c0-2.7.22-5.25-.02-7.93-.15-1.7-.75-3.11-1.44-4.62-.57-1.24-1.08-2.41-2.49-2.9l-2.26-.79c-5.53-1.23-10.36-.03-14.79-.56l-7.52-.89c-2.78-.33-5.48,0-8.28.11-3.56.15-6.97.07-10.52-.17l-6.09-.42-15.61-.03c-1.19,0-2.22.54-3.22,1.03-1.48.73-2.22,1.86-2.67,3.41-.51,1.76-.86,3.45-.81,5.33l.15,5.52c.08,2.86.05,5.59.32,8.45.31,3.31.25,6.48-.07,9.76-.23,2.29-.55,4.48-.55,6.8v14.82c.01,3.22.24,6.27.08,9.48-.07,1.31.29,2.49.86,3.64.3.6.52,1.45,1.02,1.91.82.77,2.06,1.16,3.17,1.28l4.1.46c3.01.33,5.93.43,8.97.49l8.46.17c3.43.07,6.74.42,10.17.44l5.35.04,11,.64c5.79.33,11.46-.14,17.18-1.44ZM43.32,139.66v-4.81c.55-4.34.58-8.59.37-12.96l.06-5.7-.6-8.63-.38-9.65-.03-14.12.15-6.99h-7.16s-5.79-.3-5.79-.3l.13,9.52-.22,13.61.03,5.01.04,8.96c-.18,3.04-.38,5.92-.2,8.96l-.03,12.42.12,4.82c2.77.35,5.4.32,8.14.17l5.38-.3Z"/>
        <path class="cls-3" d="M32.68,63.86c-.16.44-.57.93-1.04,1.01-2.5.43-5.98.62-8.03-.57-.59-2.45-.8-4.78-.61-7.27l.42-5.68.25-9.56c.1-3.92-.12-7.71-.4-11.64-.23-3.3-.26-6.42.11-9.68l.47-4.09c.05-.44.72-.83,1.14-.91,2.57-.49,4.97-.87,7.6-.97,5.53-.21,10.91.79,15.86,3.21,1.61.79,3.07,1.74,4.02,3.25l2.6,4.12c2.39,4.4,2.76,10.18.71,14.77-1.04,2.32-2.73,3.96-5.02,5.03-5.14,2.38-11.99,3.67-17.64,3.45l.05,6.81c.02,2.97-.11,5.77-.47,8.71ZM31.69,47.44c0-.26.66-.64.87-.56,2.66.18,5.1.03,7.69-.41,4.03-.72,10.9-2.21,13.12-5.36,3.1-4.41,2.99-10.49.51-15.16l-2.59-4.14c-.89-1.42-2.29-2.23-3.81-2.95-7.01-3.31-14.69-3.58-22.29-1.98l-.37,3.63c-.23,2.25-.44,4.46-.3,6.72l.53,8.28c.24,3.78.03,7.42-.19,11.2-.12,2.16.14,4.23-.11,6.37-.4,3.47-.66,6.87.12,10.33,2.1.57,4.22.45,6.43.08.38-2.89.46-5.71.48-8.66l.02-4.38-.1-3Z"/>
        <path class="cls-3" d="M43.94,39.04c-3.64,1.22-7.4,1.47-11.18,1.17-.5-.04-1.02-.21-1.05-.74l-.3-5.53.42-8.78c.03-.72.36-1.19,1.1-1.25,4.45-.38,8.88-.28,12.71,2.13,2.19,1.38,3.21,3.65,3.16,6.18-.05,3.15-1.74,5.78-4.87,6.83ZM44.72,37.1c3.16-1.99,3.62-6.45,1.13-9.16-3.35-2.76-8.51-3.21-12.63-2.57l-.4,8.4c-.08,1.68.2,3.3.24,4.99,3.36.41,9.15-.08,11.67-1.66Z"/>
      </g>
      <g>
        <path class="cls-8" d="M223.54,115.74l-.2-3.63-.17-2.46-.89-5.71-1.42-5.98c-.28-1.19-.99-2.11-2.06-2.77-2.96-1.83-6.16-3.09-9.58-3.93-3.22-.8-8.17-1.86-10.2-3.92-.27-.27-.49-1.11-.57-1.53-.91-4.62-2.38-8.91-4.33-13.18-2.67-5.84-8.48-11.5-13.95-14.83-3.35-2.05-11.34-3.17-15.53-3.36l-11.55-.53c-3.02-.14-5.89-.26-8.9.15-7.15.99-14.02,3.1-20.42,6.42-4.59,2.39-8.2,5.85-11.13,10.04-1.96,2.81-3.96,5.43-5.34,8.57l-2.61,5.96c-.81,1.84-2.1,3.13-3.97,3.89-2.55,1.04-5.13,1.74-7.84,2.44l-12.11,3.12c-2.02.52-3.9,1.22-5.77,2.05-2.18.96-3.63,2.62-4.61,4.75l-1.98,4.3c-1.19,2.59-1.49,5.39-1.46,8.25l.04,4-.02,5.13.58,2.82c.53,2.55,4.92,4.52,7.88,5.08,3.04.57,6.08.73,9.22.7l10.45-.09c.99,7.14,4.86,11.48,11.88,12.44,4.77.65,10.68-.33,13.61-4.27,1.77-2.39,2.83-5.19,3.05-8.11l5.05-.16,6.86-.37,8.96.04c5.12.34,9.95.09,15.07,0l10.27-.2c.16,7.16,5.26,12.61,11.97,13.95,3.08.62,6.05.32,8.93-.94,5.12-2.24,7.64-5.92,8.25-11.58l2.52-.13,6.66-.22,4.01-.13c3.86-.12,7.3-.37,9.09-3.97,1.19-2.39,2.08-4.99,2.28-7.72l.13-1.88-.15-2.5ZM221.92,112.12l.14,2.46.2,2.8-4.14-.03c-1.14-.01-2.13-.1-3.16-.58-.23-2.2-.16-4.16.14-6.28,2.28-.56,4.3-.6,6.63-.52l.19,2.15ZM69.73,106.15c2.64-.19,5.04-.2,7.65-.09.31.01.94.29,1.27.46.53,2.2.23,6.85-.99,6.91l-4.64.22c-1.59.07-3.1-.04-4.73-.27-.19-2.57.4-4.89,1.44-7.23ZM119.64,138.53c-.97,1.31-2.09,2.41-3.74,3.04-3.3,1.28-6.71,1.41-10.11.7-3.01-.62-5.68-2.27-7.27-4.93-2.95-4.92-2.93-11.76.45-16.42,1.93-2.66,6.6-4.81,9.81-5.23,5.29-.68,10.97,2.63,12.53,7.64.67,2.16,1.01,4.42,1.04,6.7.04,3.16-.86,6-2.71,8.5ZM197.51,132.53c-.01,2.16-.88,4.41-2.28,6.23-2.7,3.53-7.23,5.28-11.47,4.91-3.87-.34-7.1-2.01-9.52-4.82-2.11-2.45-2.96-5.22-2.95-8.43.02-8.2,6.03-11.83,13.59-13.02,4.41-.69,9.22,1.65,10.99,5.72,1.02,2.35,1.67,4.88,1.65,7.5v1.91ZM220.29,126.69c-.75,1.84-2.26,3.08-4.26,3.4l-5.53.38-7.38.23-4.08.12c-.28-3.49-1.18-8.15-3.31-10.63-2.22-2.59-5.41-4.29-8.89-4.26-3.83.03-7.46,1.14-10.72,3-2.56,1.46-4.41,3.74-5.34,6.5l-.99,3.96-10.98.28-3.91.23h-5.82c-6.42-.43-12.73-.34-19.12.04l-3,.18c-1.06.06-2.19.22-3.18-.06-.34-3.03-.43-5.92-1.75-8.66-2.52-5.24-8.57-8.06-14.24-6.95-2.37.46-4.39,1.43-6.45,2.53-4.69,2.83-6.39,7.65-6.39,13.04-4.58.14-8.98.34-13.48.14-4.04-.17-8.25-.62-11.36-3.12-2.37-1.91-1.9-6.37-1.77-9.63l.09-2.51h6.38s3.26-.22,3.26-.22c.69-.05,1.46-.75,1.62-1.41.55-2.33.73-4.61.26-6.97-.47-2.42-6.26-1.61-9.56-1.59l1.89-4.01c1.07-2.24,4.28-3.46,6.83-4.24,4.57-1.38,9.06-2.5,13.7-3.63,2.97-.73,5.78-1.51,8.57-2.66,2.13-.87,3.64-2.34,4.56-4.43l2.62-5.97c2.13-4.2,4.72-8.06,7.79-11.63,3.29-3.81,7.49-6.41,12.12-8.3,5.55-2.27,11.18-3.99,17.19-4.47,2.99-.24,5.87-.08,8.86.02,7.34.24,16.31.45,23.14,2.8,1.92.67,3.49,1.89,5.06,3.13,4.3,3.38,8.19,7.48,10.41,12.5,1.85,4.19,3.27,8.35,4.08,12.86.15.86.71,1.74,1.4,2.23,1.41,1.01,2.96,1.75,4.65,2.21l5.86,1.57c2.89.78,5.58,1.83,8.21,3.22,1.25.67,2.09,1.57,2.38,2.99l1.9,9.58-2.86.11c-1.44.06-2.89.27-4.31.67-.47.14-.86,1.29-.86,1.77l-.04,5.44c.19,1.02.78,1.92,1.87,1.99l6.92.39c-.27,2.75-1.01,5.33-2.04,7.84Z"/>
        <path class="cls-2" d="M222.26,117.38l-4.14-.03c-1.14-.01-2.13-.1-3.16-.58-.23-2.2-.16-4.16.14-6.28,2.28-.56,4.3-.6,6.63-.52l.19,2.15.14,2.46.2,2.8Z"/>
        <path class="cls-6" d="M77.66,113.43l-4.64.22c-1.59.07-3.1-.04-4.73-.27-.19-2.57.4-4.89,1.44-7.23,2.64-.19,5.04-.2,7.65-.09.31.01.94.29,1.27.46.53,2.2.23,6.85-.99,6.91Z"/>
        <path class="cls-8" d="M195.87,123.12c-1.77-4.07-6.58-6.41-10.99-5.72-7.56,1.19-13.57,4.82-13.59,13.02,0,3.21.84,5.98,2.95,8.43,2.42,2.81,5.65,4.48,9.52,4.82,4.24.37,8.77-1.38,11.47-4.91,1.4-1.82,2.27-4.07,2.28-6.23v-1.91c.03-2.62-.62-5.15-1.64-7.5ZM186.59,134.93c-1.94.74-4.43.29-5.98-1.2-1.54-1.48-1.35-3.61-.57-5.32.77-1.69,2.09-2.96,3.98-3.07.9-.58,1.96-.52,2.93-.21,1.9.62,3.04,2.14,3.05,4.17.01,2.32-1.11,4.75-3.41,5.63Z"/>
        <path class="cls-8" d="M121.31,123.33c-1.56-5.01-7.24-8.32-12.53-7.64-3.21.42-7.88,2.57-9.81,5.23-3.38,4.66-3.4,11.5-.45,16.42,1.59,2.66,4.26,4.31,7.27,4.93,3.4.71,6.81.58,10.11-.7,1.65-.63,2.77-1.73,3.74-3.04,1.85-2.5,2.75-5.34,2.71-8.5-.03-2.28-.37-4.54-1.04-6.7ZM111.63,133.47c-2.28.79-4.62-.08-6.16-1.78-1.24-2.73-.17-6.11,2.66-7.32l1.74-.56c1.3-.43,2.89.23,3.79,1.11,1,.98,1.45,2.33,1.33,3.8-.18,2.05-1.28,4.03-3.36,4.75Z"/>
        <path class="cls-4" d="M215.41,118.46c-1.09-.07-1.68-.97-1.87-1.99l.04-5.44c0-.48.39-1.63.86-1.77,1.42-.4,2.87-.61,4.31-.67l2.86-.11-1.9-9.58c-.29-1.42-1.13-2.32-2.38-2.99-2.63-1.39-5.32-2.44-8.21-3.22l-5.86-1.57c-1.69-.46-3.24-1.2-4.65-2.21-.69-.49-1.25-1.37-1.4-2.23-.81-4.51-2.23-8.67-4.08-12.86-2.22-5.02-6.11-9.12-10.41-12.5-1.57-1.24-3.14-2.46-5.06-3.13-6.83-2.35-15.8-2.56-23.14-2.8-2.99-.1-5.87-.26-8.86-.02-6.01.48-11.64,2.2-17.19,4.47-4.63,1.89-8.83,4.49-12.12,8.3-3.07,3.57-5.66,7.43-7.79,11.63l-2.62,5.97c-.92,2.09-2.43,3.56-4.56,4.43-2.79,1.15-5.6,1.93-8.57,2.66-4.64,1.13-9.13,2.25-13.7,3.63-2.55.78-5.76,2-6.83,4.24l-1.89,4.01c3.3-.02,9.09-.83,9.56,1.59.47,2.36.29,4.64-.26,6.97-.16.66-.93,1.36-1.62,1.41l-3.26.23h-6.38s-.09,2.5-.09,2.5c-.13,3.26-.6,7.72,1.77,9.63,3.11,2.5,7.32,2.95,11.36,3.12,4.5.2,8.9,0,13.48-.14,0-5.39,1.7-10.21,6.39-13.04,2.06-1.1,4.08-2.07,6.45-2.53,5.67-1.11,11.72,1.71,14.24,6.95,1.32,2.74,1.41,5.63,1.75,8.66.99.28,2.12.12,3.18.06l3-.18c6.39-.38,12.7-.47,19.12-.04h5.82l3.91-.23,10.98-.28.99-3.96c.93-2.76,2.78-5.04,5.34-6.5,3.26-1.86,6.89-2.97,10.72-3,3.48-.03,6.67,1.67,8.89,4.26,2.13,2.48,3.03,7.14,3.31,10.63l4.08-.12,7.38-.23,5.53-.38c2-.32,3.51-1.56,4.26-3.4,1.03-2.51,1.77-5.09,2.04-7.84l-6.92-.39ZM150.49,75.65l-.85,6.73-1.34,8.12c-.17,1.03-1.1,1.59-2.06,1.64l-3.07.15-9.18.08-7.44-.2c-3.14-.09-6.18-.34-9.26-.84-.96-.15-1.53-.9-1.34-1.9.89-4.83,2.84-9.23,5.43-13.39,1.1-1.76,2.02-3.61,3.68-4.93,5.44-4.3,11.98-5.26,18.79-4.64l5.23.47c.85.08,1.43.76,1.45,1.64.04,2.36.26,4.72-.04,7.07ZM185.91,92.57c-.16.21-.66.43-.95.45l-2.46.13-6.13.02-2.88-.19c-3.09-.2-6.02-.95-9.11-1.12-3.25-.18-6.41-.33-9.59-.86-.95-.16-1.29-.89-1.37-1.75-.12-1.22-.16-2.41.04-3.63l.98-5.87c.62-3.74,1.11-7.43,2.07-11.06.32-1.18,1.16-1.65,2.3-1.6l4.57.19,5.75.36c2.59.16,4.94.64,7.31,1.68l5.69,2.52c.66.3,1.06.94,1.17,1.66l1.23,7.56,1.61,10.47c.03.24-.09.86-.23,1.04Z"/>
        <path class="cls-8" d="M150.53,68.58c-.02-.88-.6-1.56-1.45-1.64l-5.23-.47c-6.81-.62-13.35.34-18.79,4.64-1.66,1.32-2.58,3.17-3.68,4.93-2.59,4.16-4.54,8.56-5.43,13.39-.19,1,.38,1.75,1.34,1.9,3.08.5,6.12.75,9.26.84l7.44.2,9.18-.08,3.07-.15c.96-.05,1.89-.61,2.06-1.64l1.34-8.12.85-6.73c.3-2.35.08-4.71.04-7.07ZM149.22,75.31l-1.69,11.78-.54,2.88c-.05.24-.44.75-.76.77-5.19.28-10.12.2-15.24.09l-6.22-.13c-2.53-.06-4.86-.34-7.52-.84.68-3.14,1.59-6.17,3.04-9.03l3.79-6.47c1.02-1.74,2.52-2.84,4.26-3.79,6.65-3.64,12.49-3.11,19.79-2.28.29.03.66.09.83.18.39.23.51,5.11.26,6.84Z"/>
        <path class="cls-7" d="M149.22,75.31l-1.69,11.78-.54,2.88c-.05.24-.44.75-.76.77-5.19.28-10.12.2-15.24.09l-6.22-.13c-2.53-.06-4.86-.34-7.52-.84.68-3.14,1.59-6.17,3.04-9.03l3.79-6.47c1.02-1.74,2.52-2.84,4.26-3.79,6.65-3.64,12.49-3.11,19.79-2.28.29.03.66.09.83.18.39.23.51,5.11.26,6.84Z"/>
        <path class="cls-8" d="M184.53,81.06l-1.23-7.56c-.11-.72-.51-1.36-1.17-1.66l-5.69-2.52c-2.37-1.04-4.72-1.52-7.31-1.68l-5.75-.36-4.57-.19c-1.14-.05-1.98.42-2.3,1.6-.96,3.63-1.45,7.32-2.07,11.06l-.98,5.87c-.2,1.22-.16,2.41-.04,3.63.08.86.42,1.59,1.37,1.75,3.18.53,6.34.68,9.59.86,3.09.17,6.02.92,9.11,1.12l2.88.19,6.13-.02,2.46-.13c.29-.02.79-.24.95-.45.14-.18.26-.8.23-1.04l-1.61-10.47ZM172.92,91.49l-8.44-1.02c-3.22-.39-6.35-.31-9.62-.88-.29-1.72-.13-3.27.13-4.93l1.29-8.08c.44-2.74.92-5.28,1.7-8.01l4.84.07,6.94.47c1.69.15,3.34.35,4.9,1.04l7.21,3.14,1.68,10.24,1.18,8.09c-3.98.14-7.86.35-11.81-.13Z"/>
        <path class="cls-7" d="M184.73,91.62c-3.98.14-7.86.35-11.81-.13l-8.44-1.02c-3.22-.39-6.35-.31-9.62-.88-.29-1.72-.13-3.27.13-4.93l1.29-8.08c.44-2.74.92-5.28,1.7-8.01l4.84.07,6.94.47c1.69.15,3.34.35,4.9,1.04l7.21,3.14,1.68,10.24,1.18,8.09Z"/>
        <path class="cls-8" d="M113.66,124.92c-.9-.88-2.49-1.54-3.79-1.11l-1.74.56c-2.83,1.21-3.9,4.59-2.66,7.32,1.54,1.7,3.88,2.57,6.16,1.78,2.08-.72,3.18-2.7,3.36-4.75.12-1.47-.33-2.82-1.33-3.8ZM110.81,132.27c-1.49.35-3.42-.19-4.14-1.54-1.1-2.04.37-4.77,2.55-5.22l1.6-.33c1.76-.05,2.96,1.6,2.81,3.34-.14,1.69-.95,3.32-2.82,3.75Z"/>
        <path class="cls-5" d="M113.63,128.52c-.14,1.69-.95,3.32-2.82,3.75-1.49.35-3.42-.19-4.14-1.54-1.1-2.04.37-4.77,2.55-5.22l1.6-.33c1.76-.05,2.96,1.6,2.81,3.34Z"/>
        <path class="cls-8" d="M186.95,125.13c-.97-.31-2.03-.37-2.93.21-1.89.11-3.21,1.38-3.98,3.07-.78,1.71-.97,3.84.57,5.32,1.55,1.49,4.04,1.94,5.98,1.2,2.3-.88,3.42-3.31,3.41-5.63-.01-2.03-1.15-3.55-3.05-4.17ZM186.03,133.63c-1.46.6-3.68.16-4.67-1.24-1.13-1.61-.23-3.74.99-4.89,1.44-1.36,2.59-.2,3.34-1.13,1.48-.12,2.81,1.12,2.91,2.73.11,1.83-.76,3.78-2.57,4.53Z"/>
        <path class="cls-5" d="M188.6,129.1c.11,1.83-.76,3.78-2.57,4.53-1.46.6-3.68.16-4.67-1.24-1.13-1.61-.23-3.74.99-4.89,1.44-1.36,2.59-.2,3.34-1.13,1.48-.12,2.81,1.12,2.91,2.73Z"/>
      </g>
      <g>
        <path d="M77.47,7.81c-.74-1.61-1.65-3.1-3.4-3.74-1.85-.67-3.72-1.27-5.71-1.27l-6.85.02c-2.65,0-5.18-.06-7.8-.48-3.49-.56-6.82-.7-10.36-.47-3.26.21-6.41.33-9.65.11l-8.34-.57H9.25c-1.95-.01-3.8,1.13-5.2,2.34-.99.86-1.29,2.1-1.68,3.28-.56,1.71-.83,3.35-.78,5.17l.15,5.26c.08,2.94.07,5.75.33,8.67.27,3.11.26,6.09-.04,9.19-.22,2.27-.55,4.44-.55,6.75l.02,15.43.04,8.66c0,1.54.26,2.9.88,4.28.46,1.01.91,2.1,1.81,2.76,1.69,1.24,3.68,1.28,5.7,1.51,3.6.4,7.04.82,10.68.67,2.34-.09,4.6-.06,6.9.09,5.04,0,10.07.18,15.1.47h.02s0,0,0,0c.47.03.95.06,1.42.09h0s12.87.67,12.87.67c4.99.26,9.78-.35,14.63-1.26,1.41-.27,2.25-.78,3.2-1.8,1.87-2.01,3.1-4.28,3.1-7.14v-7.79s.62-7.13.62-7.13l.06-11.87.33-6.8.03-11.03.07-8.46c.02-2.05-.66-3.78-1.5-5.61ZM77.54,20.69l-.03,11.53-.32,6.79-.07,12.21-.65,7.13.02,5.95c0,1.68,0,3.35-.52,4.94-.44,1.37-1.41,2.38-2.32,3.45-.38.45-.81.97-1.53,1.13-5.63,1.29-11.21,1.75-16.91,1.42l-10.82-.62-5.26-.04c-3.37-.03-6.63-.37-10.01-.43l-8.32-.16c-2.99-.06-5.86-.15-8.83-.48l-4.04-.45c-1.1-.12-2.31-.5-3.12-1.26-.49-.46-.71-1.29-1-1.88-.56-1.13-.92-2.3-.85-3.58.17-3.16-.06-6.16-.07-9.33v-14.58c-.01-2.28.31-4.44.53-6.7.32-3.23.37-6.34.07-9.6-.27-2.81-.24-5.5-.32-8.32l-.15-5.43c-.05-1.85.29-3.51.79-5.24.44-1.52,1.17-2.64,2.63-3.36.98-.48,2-1.01,3.17-1.01l15.36.03,5.99.41c3.49.24,6.85.31,10.35.17,2.75-.11,5.41-.43,8.15-.11l7.4.88c4.36.52,9.11-.66,14.55.55l2.23.78c1.39.49,1.9,1.64,2.46,2.86.68,1.49,1.27,2.87,1.42,4.55.24,2.63.03,5.15.02,7.8Z"/>
        <path d="M32.59,63.2c-.15.44-.56.91-1.03.99-2.46.42-5.89.61-7.9-.56-.58-2.41-.78-4.71-.6-7.15l.42-5.59.24-9.41c.1-3.86-.12-7.59-.39-11.46-.23-3.25-.26-6.32.11-9.53l.46-4.03c.05-.43.71-.82,1.12-.9,2.53-.48,4.9-.85,7.48-.95,5.44-.21,10.74.78,15.6,3.16,1.59.78,3.02,1.71,3.96,3.2l2.55,4.06c2.36,4.33,2.72,10.02.7,14.53-1.02,2.28-2.68,3.9-4.94,4.95-5.06,2.34-11.8,3.61-17.36,3.39l.05,6.7c.02,2.92-.11,5.68-.46,8.58ZM31.62,47.04c0-.26.65-.63.85-.56,2.62.18,5.02.03,7.57-.4,3.97-.71,10.73-2.18,12.91-5.28,3.05-4.34,2.94-10.32.5-14.92l-2.55-4.08c-.87-1.39-2.25-2.19-3.75-2.9-6.9-3.25-14.46-3.52-21.93-1.95l-.36,3.57c-.22,2.21-.44,4.38-.29,6.61l.52,8.15c.24,3.72.03,7.3-.19,11.02-.12,2.13.14,4.17-.1,6.27-.4,3.42-.65,6.76.11,10.17,2.07.57,4.15.44,6.32.08.37-2.84.45-5.62.47-8.52l.02-4.31-.1-2.95Z"/>
        <path class="cls-10" d="M31.62,47.04l.1,2.95-.02,4.31c-.02,2.9-.1,5.68-.47,8.52-2.17.37-4.25.49-6.32-.08-.77-3.4-.51-6.75-.11-10.17.24-2.1-.02-4.14.1-6.27.21-3.72.42-7.3.19-11.02l-.52-8.15c-.14-2.23.07-4.4.29-6.61l.36-3.57c7.48-1.58,15.03-1.31,21.93,1.95,1.5.71,2.88,1.51,3.75,2.9l2.55,4.08c2.44,4.59,2.55,10.58-.5,14.92-2.18,3.1-8.94,4.57-12.91,5.28-2.55.43-4.95.58-7.57.4-.21-.08-.86.3-.85.56ZM43.67,38.78c3.08-1.03,4.74-3.62,4.79-6.72.04-2.5-.95-4.73-3.11-6.09-3.77-2.37-8.13-2.47-12.51-2.1-.73.06-1.05.52-1.09,1.23l-.42,8.64.3,5.44c.03.53.54.69,1.03.73,3.72.29,7.41.05,11-1.15Z"/>
        <path d="M43.67,38.78c-3.58,1.2-7.28,1.44-11,1.15-.49-.04-1-.21-1.03-.73l-.3-5.44.42-8.64c.03-.71.35-1.17,1.09-1.23,4.38-.37,8.74-.28,12.51,2.1,2.16,1.36,3.15,3.59,3.11,6.09-.05,3.1-1.71,5.69-4.79,6.72ZM44.44,36.87c3.11-1.96,3.56-6.34,1.11-9.01-3.3-2.72-8.38-3.16-12.43-2.53l-.4,8.27c-.08,1.65.2,3.25.23,4.91,3.3.41,9.01-.08,11.49-1.64Z"/>
        <path class="cls-9" d="M44.44,36.87c-2.48,1.56-8.18,2.04-11.49,1.64-.03-1.67-.31-3.26-.23-4.91l.4-8.27c4.06-.63,9.14-.19,12.43,2.53,2.45,2.67,2,7.06-1.11,9.01Z"/>
      </g>
      <polygon class="cls-9" points="28.57 76.4 29.48 141.22 43.32 139.66 44.33 76.88 28.57 76.4"/>
      <g>
        <path class="cls-3" d="M44.77,135.56l.06,4.79c0,.19-.12.61-.26.7s-.52.11-.77.12l-4.5.14c-3.33.1-6.51.22-9.83-.1-.3-.03-.86-.1-.99-.29s-.12-.65-.12-.98l.04-9.27-.07-7.66c-.03-3.3-.02-6.47.2-9.78l-.04-7.57.02-8.59.08-15.71-.02-4.98c-2.69-.21-5.33-.28-8.06-.17-3.7.15-7.2-.27-10.86-.68-2.05-.23-4.07-.27-5.79-1.53-.91-.66-1.37-1.78-1.84-2.8-.64-1.4-.89-2.78-.9-4.35l-.04-8.8-.02-15.68c0-2.35.33-4.55.56-6.86.31-3.15.32-6.18.04-9.34-.26-2.97-.25-5.82-.33-8.81l-.15-5.34c-.05-1.85.22-3.52.79-5.26.4-1.19.7-2.46,1.71-3.33,1.42-1.23,3.3-2.4,5.28-2.39h16.38s8.47.59,8.47.59c3.3.22,6.49.1,9.81-.11,3.6-.23,6.98-.09,10.53.48,2.66.43,5.23.5,7.92.49l6.96-.02c2.02,0,3.92.6,5.8,1.29,1.77.65,2.7,2.16,3.45,3.8.86,1.86,1.55,3.62,1.53,5.7l-.08,8.6-.03,11.2-.33,6.91-.07,12.06-.63,7.24v7.92c0,2.91-1.26,5.21-3.15,7.26-.96,1.04-1.81,1.56-3.25,1.83-4.93.93-9.8,1.54-14.86,1.28l-13.08-.69-.13,6.04v14.48c-.09,3.76.07,7.31.49,11.04.46,4.03.5,7.86.44,11.9-.05,3.44.25,6.75,0,10.17l-.37,5.06ZM72.83,74.67c.73-.17,1.17-.7,1.56-1.15.92-1.09,1.9-2.12,2.36-3.51.52-1.61.53-3.31.53-5.02l-.02-6.04.66-7.24.07-12.41.32-6.9.03-11.72c0-2.7.22-5.25-.02-7.93-.15-1.7-.75-3.11-1.44-4.62-.57-1.24-1.08-2.41-2.49-2.9l-2.26-.79c-5.53-1.23-10.36-.03-14.79-.56l-7.52-.89c-2.78-.33-5.48,0-8.28.11-3.56.15-6.97.07-10.52-.17l-6.09-.42-15.61-.03c-1.19,0-2.22.54-3.22,1.03-1.48.73-2.22,1.86-2.67,3.41-.51,1.76-.86,3.45-.81,5.33l.15,5.52c.08,2.86.05,5.59.32,8.45.31,3.31.25,6.48-.07,9.76-.23,2.29-.55,4.48-.55,6.8v14.82c.01,3.22.24,6.27.08,9.48-.07,1.31.29,2.49.86,3.64.3.6.52,1.45,1.02,1.91.82.77,2.06,1.16,3.17,1.28l4.1.46c3.01.33,5.93.43,8.97.49l8.46.17c3.43.07,6.74.42,10.17.44l5.35.04,11,.64c5.79.33,11.46-.14,17.18-1.44ZM43.32,139.66v-4.81c.55-4.34.58-8.59.37-12.96l.06-5.7-.6-8.63-.38-9.65-.03-14.12.15-6.99h-7.16s-5.79-.3-5.79-.3l.13,9.52-.22,13.61.03,5.01.04,8.96c-.18,3.04-.38,5.92-.2,8.96l-.03,12.42.12,4.82c2.77.35,5.4.32,8.14.17l5.38-.3Z"/>
        <path class="cls-3" d="M32.68,63.86c-.16.44-.57.93-1.04,1.01-2.5.43-5.98.62-8.03-.57-.59-2.45-.8-4.78-.61-7.27l.42-5.68.25-9.56c.1-3.92-.12-7.71-.4-11.64-.23-3.3-.26-6.42.11-9.68l.47-4.09c.05-.44.72-.83,1.14-.91,2.57-.49,4.97-.87,7.6-.97,5.53-.21,10.91.79,15.86,3.21,1.61.79,3.07,1.74,4.02,3.25l2.6,4.12c2.39,4.4,2.76,10.18.71,14.77-1.04,2.32-2.73,3.96-5.02,5.03-5.14,2.38-11.99,3.67-17.64,3.45l.05,6.81c.02,2.97-.11,5.77-.47,8.71ZM31.69,47.44c0-.26.66-.64.87-.56,2.66.18,5.1.03,7.69-.41,4.03-.72,10.9-2.21,13.12-5.36,3.1-4.41,2.99-10.49.51-15.16l-2.59-4.14c-.89-1.42-2.29-2.23-3.81-2.95-7.01-3.31-14.69-3.58-22.29-1.98l-.37,3.63c-.23,2.25-.44,4.46-.3,6.72l.53,8.28c.24,3.78.03,7.42-.19,11.2-.12,2.16.14,4.23-.11,6.37-.4,3.47-.66,6.87.12,10.33,2.1.57,4.22.45,6.43.08.38-2.89.46-5.71.48-8.66l.02-4.38-.1-3Z"/>
        <path class="cls-3" d="M43.94,39.04c-3.64,1.22-7.4,1.47-11.18,1.17-.5-.04-1.02-.21-1.05-.74l-.3-5.53.42-8.78c.03-.72.36-1.19,1.1-1.25,4.45-.38,8.88-.28,12.71,2.13,2.19,1.38,3.21,3.65,3.16,6.18-.05,3.15-1.74,5.78-4.87,6.83ZM44.72,37.1c3.16-1.99,3.62-6.45,1.13-9.16-3.35-2.76-8.51-3.21-12.63-2.57l-.4,8.4c-.08,1.68.2,3.3.24,4.99,3.36.41,9.15-.08,11.67-1.66Z"/>
      </g>
      <g>
        <path class="cls-8" d="M223.54,115.74l-.2-3.63-.17-2.46-.89-5.71-1.42-5.98c-.28-1.19-.99-2.11-2.06-2.77-2.96-1.83-6.16-3.09-9.58-3.93-3.22-.8-8.17-1.86-10.2-3.92-.27-.27-.49-1.11-.57-1.53-.91-4.62-2.38-8.91-4.33-13.18-2.67-5.84-8.48-11.5-13.95-14.83-3.35-2.05-11.34-3.17-15.53-3.36l-11.55-.53c-3.02-.14-5.89-.26-8.9.15-7.15.99-14.02,3.1-20.42,6.42-4.59,2.39-8.2,5.85-11.13,10.04-1.96,2.81-3.96,5.43-5.34,8.57l-2.61,5.96c-.81,1.84-2.1,3.13-3.97,3.89-2.55,1.04-5.13,1.74-7.84,2.44l-12.11,3.12c-2.02.52-3.9,1.22-5.77,2.05-2.18.96-3.63,2.62-4.61,4.75l-1.98,4.3c-1.19,2.59-1.49,5.39-1.46,8.25l.04,4-.02,5.13.58,2.82c.53,2.55,4.92,4.52,7.88,5.08,3.04.57,6.08.73,9.22.7l10.45-.09c.99,7.14,4.86,11.48,11.88,12.44,4.77.65,10.68-.33,13.61-4.27,1.77-2.39,2.83-5.19,3.05-8.11l5.05-.16,6.86-.37,8.96.04c5.12.34,9.95.09,15.07,0l10.27-.2c.16,7.16,5.26,12.61,11.97,13.95,3.08.62,6.05.32,8.93-.94,5.12-2.24,7.64-5.92,8.25-11.58l2.52-.13,6.66-.22,4.01-.13c3.86-.12,7.3-.37,9.09-3.97,1.19-2.39,2.08-4.99,2.28-7.72l.13-1.88-.15-2.5ZM221.92,112.12l.14,2.46.2,2.8-4.14-.03c-1.14-.01-2.13-.1-3.16-.58-.23-2.2-.16-4.16.14-6.28,2.28-.56,4.3-.6,6.63-.52l.19,2.15ZM69.73,106.15c2.64-.19,5.04-.2,7.65-.09.31.01.94.29,1.27.46.53,2.2.23,6.85-.99,6.91l-4.64.22c-1.59.07-3.1-.04-4.73-.27-.19-2.57.4-4.89,1.44-7.23ZM119.64,138.53c-.97,1.31-2.09,2.41-3.74,3.04-3.3,1.28-6.71,1.41-10.11.7-3.01-.62-5.68-2.27-7.27-4.93-2.95-4.92-2.93-11.76.45-16.42,1.93-2.66,6.6-4.81,9.81-5.23,5.29-.68,10.97,2.63,12.53,7.64.67,2.16,1.01,4.42,1.04,6.7.04,3.16-.86,6-2.71,8.5ZM197.51,132.53c-.01,2.16-.88,4.41-2.28,6.23-2.7,3.53-7.23,5.28-11.47,4.91-3.87-.34-7.1-2.01-9.52-4.82-2.11-2.45-2.96-5.22-2.95-8.43.02-8.2,6.03-11.83,13.59-13.02,4.41-.69,9.22,1.65,10.99,5.72,1.02,2.35,1.67,4.88,1.65,7.5v1.91ZM220.29,126.69c-.75,1.84-2.26,3.08-4.26,3.4l-5.53.38-7.38.23-4.08.12c-.28-3.49-1.18-8.15-3.31-10.63-2.22-2.59-5.41-4.29-8.89-4.26-3.83.03-7.46,1.14-10.72,3-2.56,1.46-4.41,3.74-5.34,6.5l-.99,3.96-10.98.28-3.91.23h-5.82c-6.42-.43-12.73-.34-19.12.04l-3,.18c-1.06.06-2.19.22-3.18-.06-.34-3.03-.43-5.92-1.75-8.66-2.52-5.24-8.57-8.06-14.24-6.95-2.37.46-4.39,1.43-6.45,2.53-4.69,2.83-6.39,7.65-6.39,13.04-4.58.14-8.98.34-13.48.14-4.04-.17-8.25-.62-11.36-3.12-2.37-1.91-1.9-6.37-1.77-9.63l.09-2.51h6.38s3.26-.22,3.26-.22c.69-.05,1.46-.75,1.62-1.41.55-2.33.73-4.61.26-6.97-.47-2.42-6.26-1.61-9.56-1.59l1.89-4.01c1.07-2.24,4.28-3.46,6.83-4.24,4.57-1.38,9.06-2.5,13.7-3.63,2.97-.73,5.78-1.51,8.57-2.66,2.13-.87,3.64-2.34,4.56-4.43l2.62-5.97c2.13-4.2,4.72-8.06,7.79-11.63,3.29-3.81,7.49-6.41,12.12-8.3,5.55-2.27,11.18-3.99,17.19-4.47,2.99-.24,5.87-.08,8.86.02,7.34.24,16.31.45,23.14,2.8,1.92.67,3.49,1.89,5.06,3.13,4.3,3.38,8.19,7.48,10.41,12.5,1.85,4.19,3.27,8.35,4.08,12.86.15.86.71,1.74,1.4,2.23,1.41,1.01,2.96,1.75,4.65,2.21l5.86,1.57c2.89.78,5.58,1.83,8.21,3.22,1.25.67,2.09,1.57,2.38,2.99l1.9,9.58-2.86.11c-1.44.06-2.89.27-4.31.67-.47.14-.86,1.29-.86,1.77l-.04,5.44c.19,1.02.78,1.92,1.87,1.99l6.92.39c-.27,2.75-1.01,5.33-2.04,7.84Z"/>
        <path class="cls-2" d="M222.26,117.38l-4.14-.03c-1.14-.01-2.13-.1-3.16-.58-.23-2.2-.16-4.16.14-6.28,2.28-.56,4.3-.6,6.63-.52l.19,2.15.14,2.46.2,2.8Z"/>
        <path class="cls-6" d="M77.66,113.43l-4.64.22c-1.59.07-3.1-.04-4.73-.27-.19-2.57.4-4.89,1.44-7.23,2.64-.19,5.04-.2,7.65-.09.31.01.94.29,1.27.46.53,2.2.23,6.85-.99,6.91Z"/>
        <path class="cls-8" d="M195.87,123.12c-1.77-4.07-6.58-6.41-10.99-5.72-7.56,1.19-13.57,4.82-13.59,13.02,0,3.21.84,5.98,2.95,8.43,2.42,2.81,5.65,4.48,9.52,4.82,4.24.37,8.77-1.38,11.47-4.91,1.4-1.82,2.27-4.07,2.28-6.23v-1.91c.03-2.62-.62-5.15-1.64-7.5ZM186.59,134.93c-1.94.74-4.43.29-5.98-1.2-1.54-1.48-1.35-3.61-.57-5.32.77-1.69,2.09-2.96,3.98-3.07.9-.58,1.96-.52,2.93-.21,1.9.62,3.04,2.14,3.05,4.17.01,2.32-1.11,4.75-3.41,5.63Z"/>
        <path class="cls-8" d="M121.31,123.33c-1.56-5.01-7.24-8.32-12.53-7.64-3.21.42-7.88,2.57-9.81,5.23-3.38,4.66-3.4,11.5-.45,16.42,1.59,2.66,4.26,4.31,7.27,4.93,3.4.71,6.81.58,10.11-.7,1.65-.63,2.77-1.73,3.74-3.04,1.85-2.5,2.75-5.34,2.71-8.5-.03-2.28-.37-4.54-1.04-6.7ZM111.63,133.47c-2.28.79-4.62-.08-6.16-1.78-1.24-2.73-.17-6.11,2.66-7.32l1.74-.56c1.3-.43,2.89.23,3.79,1.11,1,.98,1.45,2.33,1.33,3.8-.18,2.05-1.28,4.03-3.36,4.75Z"/>
        <path class="cls-1" d="M215.41,118.46c-1.09-.07-1.68-.97-1.87-1.99l.04-5.44c0-.48.39-1.63.86-1.77,1.42-.4,2.87-.61,4.31-.67l2.86-.11-1.9-9.58c-.29-1.42-1.13-2.32-2.38-2.99-2.63-1.39-5.32-2.44-8.21-3.22l-5.86-1.57c-1.69-.46-3.24-1.2-4.65-2.21-.69-.49-1.25-1.37-1.4-2.23-.81-4.51-2.23-8.67-4.08-12.86-2.22-5.02-6.11-9.12-10.41-12.5-1.57-1.24-3.14-2.46-5.06-3.13-6.83-2.35-15.8-2.56-23.14-2.8-2.99-.1-5.87-.26-8.86-.02-6.01.48-11.64,2.2-17.19,4.47-4.63,1.89-8.83,4.49-12.12,8.3-3.07,3.57-5.66,7.43-7.79,11.63l-2.62,5.97c-.92,2.09-2.43,3.56-4.56,4.43-2.79,1.15-5.6,1.93-8.57,2.66-4.64,1.13-9.13,2.25-13.7,3.63-2.55.78-5.76,2-6.83,4.24l-1.89,4.01c3.3-.02,9.09-.83,9.56,1.59.47,2.36.29,4.64-.26,6.97-.16.66-.93,1.36-1.62,1.41l-3.26.23h-6.38s-.09,2.5-.09,2.5c-.13,3.26-.6,7.72,1.77,9.63,3.11,2.5,7.32,2.95,11.36,3.12,4.5.2,8.9,0,13.48-.14,0-5.39,1.7-10.21,6.39-13.04,2.06-1.1,4.08-2.07,6.45-2.53,5.67-1.11,11.72,1.71,14.24,6.95,1.32,2.74,1.41,5.63,1.75,8.66.99.28,2.12.12,3.18.06l3-.18c6.39-.38,12.7-.47,19.12-.04h5.82l3.91-.23,10.98-.28.99-3.96c.93-2.76,2.78-5.04,5.34-6.5,3.26-1.86,6.89-2.97,10.72-3,3.48-.03,6.67,1.67,8.89,4.26,2.13,2.48,3.03,7.14,3.31,10.63l4.08-.12,7.38-.23,5.53-.38c2-.32,3.51-1.56,4.26-3.4,1.03-2.51,1.77-5.09,2.04-7.84l-6.92-.39ZM150.49,75.65l-.85,6.73-1.34,8.12c-.17,1.03-1.1,1.59-2.06,1.64l-3.07.15-9.18.08-7.44-.2c-3.14-.09-6.18-.34-9.26-.84-.96-.15-1.53-.9-1.34-1.9.89-4.83,2.84-9.23,5.43-13.39,1.1-1.76,2.02-3.61,3.68-4.93,5.44-4.3,11.98-5.26,18.79-4.64l5.23.47c.85.08,1.43.76,1.45,1.64.04,2.36.26,4.72-.04,7.07ZM185.91,92.57c-.16.21-.66.43-.95.45l-2.46.13-6.13.02-2.88-.19c-3.09-.2-6.02-.95-9.11-1.12-3.25-.18-6.41-.33-9.59-.86-.95-.16-1.29-.89-1.37-1.75-.12-1.22-.16-2.41.04-3.63l.98-5.87c.62-3.74,1.11-7.43,2.07-11.06.32-1.18,1.16-1.65,2.3-1.6l4.57.19,5.75.36c2.59.16,4.94.64,7.31,1.68l5.69,2.52c.66.3,1.06.94,1.17,1.66l1.23,7.56,1.61,10.47c.03.24-.09.86-.23,1.04Z"/>
        <path class="cls-8" d="M150.53,68.58c-.02-.88-.6-1.56-1.45-1.64l-5.23-.47c-6.81-.62-13.35.34-18.79,4.64-1.66,1.32-2.58,3.17-3.68,4.93-2.59,4.16-4.54,8.56-5.43,13.39-.19,1,.38,1.75,1.34,1.9,3.08.5,6.12.75,9.26.84l7.44.2,9.18-.08,3.07-.15c.96-.05,1.89-.61,2.06-1.64l1.34-8.12.85-6.73c.3-2.35.08-4.71.04-7.07ZM149.22,75.31l-1.69,11.78-.54,2.88c-.05.24-.44.75-.76.77-5.19.28-10.12.2-15.24.09l-6.22-.13c-2.53-.06-4.86-.34-7.52-.84.68-3.14,1.59-6.17,3.04-9.03l3.79-6.47c1.02-1.74,2.52-2.84,4.26-3.79,6.65-3.64,12.49-3.11,19.79-2.28.29.03.66.09.83.18.39.23.51,5.11.26,6.84Z"/>
        <path class="cls-7" d="M149.22,75.31l-1.69,11.78-.54,2.88c-.05.24-.44.75-.76.77-5.19.28-10.12.2-15.24.09l-6.22-.13c-2.53-.06-4.86-.34-7.52-.84.68-3.14,1.59-6.17,3.04-9.03l3.79-6.47c1.02-1.74,2.52-2.84,4.26-3.79,6.65-3.64,12.49-3.11,19.79-2.28.29.03.66.09.83.18.39.23.51,5.11.26,6.84Z"/>
        <path class="cls-8" d="M184.53,81.06l-1.23-7.56c-.11-.72-.51-1.36-1.17-1.66l-5.69-2.52c-2.37-1.04-4.72-1.52-7.31-1.68l-5.75-.36-4.57-.19c-1.14-.05-1.98.42-2.3,1.6-.96,3.63-1.45,7.32-2.07,11.06l-.98,5.87c-.2,1.22-.16,2.41-.04,3.63.08.86.42,1.59,1.37,1.75,3.18.53,6.34.68,9.59.86,3.09.17,6.02.92,9.11,1.12l2.88.19,6.13-.02,2.46-.13c.29-.02.79-.24.95-.45.14-.18.26-.8.23-1.04l-1.61-10.47ZM172.92,91.49l-8.44-1.02c-3.22-.39-6.35-.31-9.62-.88-.29-1.72-.13-3.27.13-4.93l1.29-8.08c.44-2.74.92-5.28,1.7-8.01l4.84.07,6.94.47c1.69.15,3.34.35,4.9,1.04l7.21,3.14,1.68,10.24,1.18,8.09c-3.98.14-7.86.35-11.81-.13Z"/>
        <path class="cls-7" d="M184.73,91.62c-3.98.14-7.86.35-11.81-.13l-8.44-1.02c-3.22-.39-6.35-.31-9.62-.88-.29-1.72-.13-3.27.13-4.93l1.29-8.08c.44-2.74.92-5.28,1.7-8.01l4.84.07,6.94.47c1.69.15,3.34.35,4.9,1.04l7.21,3.14,1.68,10.24,1.18,8.09Z"/>
        <path class="cls-8" d="M113.66,124.92c-.9-.88-2.49-1.54-3.79-1.11l-1.74.56c-2.83,1.21-3.9,4.59-2.66,7.32,1.54,1.7,3.88,2.57,6.16,1.78,2.08-.72,3.18-2.7,3.36-4.75.12-1.47-.33-2.82-1.33-3.8ZM110.81,132.27c-1.49.35-3.42-.19-4.14-1.54-1.1-2.04.37-4.77,2.55-5.22l1.6-.33c1.76-.05,2.96,1.6,2.81,3.34-.14,1.69-.95,3.32-2.82,3.75Z"/>
        <path class="cls-5" d="M113.63,128.52c-.14,1.69-.95,3.32-2.82,3.75-1.49.35-3.42-.19-4.14-1.54-1.1-2.04.37-4.77,2.55-5.22l1.6-.33c1.76-.05,2.96,1.6,2.81,3.34Z"/>
        <path class="cls-8" d="M186.95,125.13c-.97-.31-2.03-.37-2.93.21-1.89.11-3.21,1.38-3.98,3.07-.78,1.71-.97,3.84.57,5.32,1.55,1.49,4.04,1.94,5.98,1.2,2.3-.88,3.42-3.31,3.41-5.63-.01-2.03-1.15-3.55-3.05-4.17ZM186.03,133.63c-1.46.6-3.68.16-4.67-1.24-1.13-1.61-.23-3.74.99-4.89,1.44-1.36,2.59-.2,3.34-1.13,1.48-.12,2.81,1.12,2.91,2.73.11,1.83-.76,3.78-2.57,4.53Z"/>
        <path class="cls-5" d="M188.6,129.1c.11,1.83-.76,3.78-2.57,4.53-1.46.6-3.68.16-4.67-1.24-1.13-1.61-.23-3.74.99-4.89,1.44-1.36,2.59-.2,3.34-1.13,1.48-.12,2.81,1.12,2.91,2.73Z"/>
      </g>
    </g>
  </g>
</svg>